# xmcd
#
# Track frame offsets: 
#        150
#        22373
#        42476
#        61707
#        84397
#        112447
#        134426
#        150770
#        169518
#
# Disc length: 2500 seconds
#
# Revision: 0
# Processed by: cddbd v1.5.2PL0 Copyright (c) Steve Scherf et al.
# Submitted via: ExactAudioCopy v1.3
#
DISCID=7209c209
DTITLE=Choco Orta - 30 Años repartiendo sabor
DYEAR=2018
DGENRE=Latin
TTITLE0=30 Años De Sentimiento y Sabor
TTITLE1=Te Perdí La Fé
TTITLE2=El Amor Es Libre
TTITLE3=Mi Buenaventura
TTITLE4=Otro Amor
TTITLE5=Severa
TTITLE6=Mienteme
TTITLE7=Se Que Tu
TTITLE8=Canta Choco Canta
EXTD=
EXTT0=
EXTT1=
EXTT2=
EXTT3=
EXTT4=
EXTT5=
EXTT6=
EXTT7=
EXTT8=
PLAYORDER=
